<svg width="50" height="10" viewBox="0 0 50 10" fill="none" xmlns="http://www.w3.org/2000/svg">
<path d="M1.24805 7.98047V1.86914H0.216797V0.849609H6.53906V3.30469H5.53125V1.86914H2.47852V4.2832H5.10938V5.30273H2.47852V7.98047H3.52148V9H0.216797V7.98047H1.24805ZM9.01758 1.86914V5.94727C9.01758 6.58008 9.04883 7.01758 9.11133 7.25977C9.17773 7.50195 9.33984 7.70898 9.59766 7.88086C9.85547 8.04883 10.1875 8.13281 10.5938 8.13281C11.0781 8.13281 11.4492 8.06055 11.707 7.91602C11.9648 7.76758 12.1348 7.57031 12.2168 7.32422C12.3027 7.07422 12.3457 6.63477 12.3457 6.00586V1.86914H11.4023V0.849609H14.5898V1.86914H13.5703V6.12891C13.5703 6.70312 13.5449 7.12109 13.4941 7.38281C13.4473 7.64062 13.3164 7.91211 13.1016 8.19727C12.8867 8.47852 12.584 8.70508 12.1934 8.87695C11.8027 9.04492 11.3281 9.12891 10.7695 9.12891C10.1523 9.12891 9.63867 9.05078 9.22852 8.89453C8.81836 8.73438 8.50977 8.52148 8.30273 8.25586C8.0957 7.99023 7.95703 7.70703 7.88672 7.40625C7.82031 7.10547 7.78711 6.63867 7.78711 6.00586V1.86914H6.7793V0.849609H9.98438V1.86914H9.01758ZM15.9668 7.98047V1.86914H14.8008V0.849609H17.584L21.1582 7.18359V1.86914H20.0039V0.849609H23.3496V1.86914H22.1484V9.08203H20.8828L16.9746 2.12695V7.98047H18.1406V9H14.8008V7.98047H15.9668ZM29.5605 4.6875H31.2305V5.68359H30.3691C30.1582 6.4375 29.8887 7.01953 29.5605 7.42969L29.9883 7.98047H31.2305V9H29.373L28.834 8.28516C28.127 8.84766 27.4043 9.12891 26.666 9.12891C25.8223 9.12891 25.125 8.86719 24.5742 8.34375C24.0234 7.82031 23.748 7.16602 23.748 6.38086C23.748 5.29492 24.3672 4.48047 25.6055 3.9375C25.2344 3.46484 25.0488 2.99023 25.0488 2.51367C25.0488 1.99023 25.2461 1.56055 25.6406 1.22461C26.0391 0.888672 26.502 0.720703 27.0293 0.720703C27.5762 0.720703 28.0371 0.888672 28.4121 1.22461C28.791 1.55664 28.9805 1.9707 28.9805 2.4668C28.9805 2.90039 28.8477 3.25586 28.582 3.5332C28.3164 3.81055 27.8789 4.07422 27.2695 4.32422L28.9277 6.56836C29.2246 6.04883 29.4355 5.42188 29.5605 4.6875ZM26.6836 3.55078C27.1523 3.35547 27.4707 3.17188 27.6387 3C27.8105 2.82812 27.8965 2.63867 27.8965 2.43164C27.8965 2.24023 27.8242 2.06836 27.6797 1.91602C27.5352 1.75977 27.3262 1.68164 27.0527 1.68164C26.8066 1.68164 26.6016 1.75586 26.4375 1.9043C26.2734 2.05273 26.1914 2.24609 26.1914 2.48438C26.1914 2.69531 26.332 3.01562 26.6133 3.44531L26.6836 3.55078ZM26.2266 4.6875C25.3828 5.0625 24.9609 5.60938 24.9609 6.32812C24.9609 6.80469 25.1387 7.22266 25.4941 7.58203C25.8496 7.9375 26.2812 8.11523 26.7891 8.11523C27.3086 8.11523 27.7812 7.89844 28.207 7.46484L26.2266 4.6875ZM32.7598 7.98047V1.86914H31.6523V0.849609H34.8047C35.6758 0.849609 36.3457 0.894531 36.8145 0.984375C37.2871 1.07422 37.7441 1.27734 38.1855 1.59375C38.627 1.91016 38.9785 2.3457 39.2402 2.90039C39.5059 3.45117 39.6387 4.08008 39.6387 4.78711C39.6387 5.5918 39.5117 6.29102 39.2578 6.88477C39.0039 7.47852 38.6699 7.92188 38.2559 8.21484C37.8457 8.50781 37.3555 8.71289 36.7852 8.83008C36.2188 8.94336 35.4961 9 34.6172 9H31.6523V7.98047H32.7598ZM33.9902 7.98047H34.6348C35.3535 7.98047 35.9219 7.93555 36.3398 7.8457C36.7617 7.75586 37.1172 7.60352 37.4062 7.38867C37.6953 7.16992 37.9297 6.8418 38.1094 6.4043C38.2891 5.9668 38.3789 5.45117 38.3789 4.85742C38.3789 4.15039 38.2305 3.55078 37.9336 3.05859C37.6406 2.56641 37.2637 2.24609 36.8027 2.09766C36.3457 1.94531 35.6406 1.86914 34.6875 1.86914H33.9902V7.98047ZM40.8516 4.88672C40.8516 3.70312 41.2383 2.71289 42.0117 1.91602C42.7852 1.11914 43.793 0.720703 45.0352 0.720703C46.2891 0.720703 47.3105 1.11914 48.0996 1.91602C48.8887 2.71289 49.2832 3.71094 49.2832 4.91016C49.2832 6.13281 48.8809 7.14258 48.0762 7.93945C47.2754 8.73242 46.2559 9.12891 45.0176 9.12891C44.2285 9.12891 43.502 8.94141 42.8379 8.56641C42.1777 8.1875 41.6816 7.66211 41.3496 6.99023C41.0176 6.31445 40.8516 5.61328 40.8516 4.88672ZM42.1934 4.89258C42.1934 5.78711 42.4551 6.53711 42.9785 7.14258C43.502 7.74805 44.1895 8.05078 45.041 8.05078C45.8848 8.05078 46.5781 7.74219 47.1211 7.125C47.6641 6.50391 47.9355 5.76367 47.9355 4.9043C47.9355 4.03711 47.6582 3.30469 47.1035 2.70703C46.5527 2.10547 45.8594 1.80469 45.0234 1.80469C44.1914 1.80469 43.5117 2.09961 42.9844 2.68945C42.457 3.2793 42.1934 4.01367 42.1934 4.89258Z" fill="white"/>
</svg>
